<svg xmlns="http://www.w3.org/2000/svg" xmlns:xlink="http://www.w3.org/1999/xlink" width="256" height="50.75" viewBox="0 0 256 50.75">
    <defs>
        <style>.a{fill:url(#a);}.b{fill:url(#b);}.c{fill:#ccc;}</style>
        <linearGradient id="a" x1="0.5" x2="0.5" y2="1" gradientUnits="objectBoundingBox">
            <stop offset="0" stop-color="#d113b5"/>
            <stop offset="1" stop-color="#a10d8c"/>
        </linearGradient>
        <linearGradient id="b" x1="0.5" x2="0.5" y2="1" gradientUnits="objectBoundingBox">
            <stop offset="0" stop-color="#f4f4f4"/>
            <stop offset="1" stop-color="#c5c5c5"/>
        </linearGradient>
    </defs>
    <g transform="translate(-128 -15.31)">
        <path class="a" d="M1.6-2.244a25.15,25.15,0,0,0,25.3,25.3,25.21,25.21,0,0,0,25.375-25.3A25.33,25.33,0,0,0,26.9-27.69,25.27,25.27,0,0,0,1.6-2.244Zm9.163,0A16.306,16.306,0,0,1,26.9-18.527,16.366,16.366,0,0,1,43.116-2.244,16.245,16.245,0,0,1,26.9,13.9,16.184,16.184,0,0,1,10.762-2.244Zm50.75,23.261a1.386,1.386,0,0,0,1.339,1.339h6.414a1.338,1.338,0,0,0,1.339-1.339V-9.293h.07L100.139,23.06h1.692a1.325,1.325,0,0,0,1.339-1.269V-25.646a1.386,1.386,0,0,0-1.339-1.339H95.346a1.338,1.338,0,0,0-1.339,1.339V3.465h-.07L64.614-27.69H62.852a1.325,1.325,0,0,0-1.339,1.269Z" transform="translate(126.401 43)"/>
        <path class="b" d="M77.154,22.074a1.481,1.481,0,0,0,1.405.987h1.249a1.333,1.333,0,0,0,1.327-.775L94.95-9.645h.39l13.972,31.93a1.333,1.333,0,0,0,1.327.775h1.249a1.481,1.481,0,0,0,1.405-.987l14.752-47.367c.312-.987-.312-1.692-1.405-1.692H119.46a1.584,1.584,0,0,0-1.4.987L110.093,2.126h-.312L97.292-26.915a1.262,1.262,0,0,0-1.327-.775h-1.4a1.262,1.262,0,0,0-1.327.775L80.822,2.126H80.51L72.392-26a1.584,1.584,0,0,0-1.4-.987H63.806c-1.093,0-1.717.7-1.4,1.692L68.23-6.578Z" transform="translate(175.445 43)"/>
        <path class="b" d="M101.928,21.016a1.386,1.386,0,0,0,1.339,1.339h6.555a1.386,1.386,0,0,0,1.339-1.339V-25.646a1.386,1.386,0,0,0-1.339-1.339h-6.555a1.386,1.386,0,0,0-1.339,1.339Zm18.467,0a1.386,1.386,0,0,0,1.339,1.339h6.414a1.338,1.338,0,0,0,1.339-1.339V-9.293h.07L159.022,23.06h1.692a1.325,1.325,0,0,0,1.339-1.269V-25.646a1.386,1.386,0,0,0-1.339-1.339h-6.485a1.338,1.338,0,0,0-1.339,1.339V3.465h-.07L123.5-27.69h-1.762a1.325,1.325,0,0,0-1.339,1.269Z" transform="translate(207.046 43)"/>
        <circle class="c" cx="3.894" cy="4.894" r="4.894" transform="translate(375.011 56.095)"/>
    </g>
</svg>