<svg width="512" height="512" viewBox="0 0 512 512" fill="none" xmlns="http://www.w3.org/2000/svg">
    <path d="M0 25C0 11.1929 11.1929 0 25 0H487C500.807 0 512 11.1929 512 25V487C512 500.807 500.807 512 487 512H25C11.1929 512 0 500.807 0 487V25Z" fill="#200B4D"/>
    <path d="M81.176 445.191C81.5302 446.192 82.1873 447.058 83.0561 447.668C83.9249 448.279 84.9622 448.603 86.024 448.597H90.334C91.2801 448.678 92.2283 448.465 93.0484 447.986C93.8684 447.507 94.5201 446.786 94.914 445.922L142.594 335.73H143.94L192.157 445.922C192.551 446.786 193.203 447.507 194.023 447.986C194.843 448.465 195.791 448.678 196.737 448.597H201.047C202.109 448.603 203.146 448.279 204.015 447.668C204.884 447.058 205.541 446.192 205.895 445.191L256.8 281.722C257.877 278.316 255.723 275.883 251.952 275.883H227.176C226.129 275.928 225.117 276.272 224.26 276.876C223.403 277.48 222.738 278.318 222.344 279.289L194.854 376.349H193.776L150.676 276.131C150.314 275.243 149.668 274.5 148.84 274.016C148.012 273.532 147.047 273.335 146.096 273.456H141.269C140.318 273.335 139.353 273.532 138.525 274.016C137.697 274.5 137.051 275.243 136.689 276.131L93.839 376.351H92.762L64.745 279.289C64.3509 278.318 63.6859 277.48 62.8292 276.876C61.9725 276.272 60.9602 275.928 59.913 275.883H35.113C31.341 275.883 29.191 278.299 30.281 281.722L81.176 445.191Z" fill="url(#paint0_linear)"/>
    <path d="M275.091 441.541C275.131 442.754 275.631 443.906 276.489 444.764C277.347 445.622 278.499 446.122 279.712 446.162H302.333C303.546 446.122 304.698 445.622 305.556 444.764C306.414 443.906 306.914 442.754 306.954 441.541V280.511C306.914 279.298 306.414 278.146 305.556 277.288C304.698 276.43 303.546 275.93 302.333 275.89H279.712C278.499 275.931 277.348 276.431 276.49 277.289C275.632 278.147 275.132 279.298 275.092 280.511L275.091 441.541ZM338.824 441.541C338.864 442.754 339.364 443.906 340.222 444.764C341.08 445.622 342.232 446.122 343.445 446.162H365.58C366.187 446.162 366.788 446.043 367.349 445.811C367.91 445.579 368.419 445.239 368.848 444.809C369.278 444.38 369.618 443.871 369.85 443.31C370.082 442.749 370.201 442.148 370.201 441.541V336.947H370.442L472.121 448.597H477.963C479.151 448.61 480.298 448.161 481.161 447.344C482.023 446.526 482.534 445.405 482.584 444.218V280.518C482.544 279.305 482.044 278.153 481.186 277.295C480.328 276.437 479.176 275.937 477.963 275.897H455.583C454.976 275.896 454.374 276.015 453.813 276.247C453.252 276.479 452.742 276.82 452.312 277.249C451.883 277.678 451.542 278.188 451.31 278.75C451.078 279.311 450.959 279.913 450.96 280.52V380.973H450.719L349.535 273.457H343.454C342.266 273.443 341.119 273.893 340.256 274.71C339.394 275.528 338.883 276.649 338.833 277.836L338.824 441.541Z" fill="url(#paint1_linear)"/>
    <path d="M81.137 151.814C81.1376 169.076 86.257 185.951 95.8478 200.303C105.439 214.656 119.07 225.843 135.018 232.448C150.967 239.054 168.516 240.782 185.446 237.414C202.377 234.046 217.928 225.733 230.134 213.526C242.34 201.32 250.653 185.768 254.02 168.837C257.388 151.907 255.659 134.358 249.053 118.41C242.447 102.462 231.26 88.8304 216.907 79.2401C202.554 69.6498 185.679 64.531 168.417 64.531C156.955 64.531 145.605 66.7887 135.016 71.1751C124.426 75.5615 114.804 81.9908 106.7 90.0958C98.5949 98.2008 92.166 107.823 87.7799 118.412C83.3939 129.002 81.1366 140.352 81.137 151.814ZM112.701 151.814C112.69 140.773 115.957 129.978 122.086 120.795C128.216 111.613 136.933 104.456 147.134 100.232C157.335 96.0076 168.559 94.9061 179.386 97.0667C190.214 99.2274 200.156 104.553 207.954 112.369C215.752 120.185 221.054 130.139 223.19 140.972C225.325 151.804 224.198 163.026 219.95 173.217C215.702 183.408 208.525 192.108 199.328 198.217C190.132 204.325 179.329 207.566 168.288 207.53C153.574 207.365 139.512 201.438 129.119 191.021C118.726 180.604 112.832 166.528 112.701 151.814ZM287.519 232.09C287.558 233.302 288.057 234.453 288.913 235.311C289.769 236.169 290.92 236.669 292.131 236.711H314.231C314.837 236.711 315.438 236.591 315.998 236.359C316.558 236.126 317.067 235.786 317.495 235.357C317.923 234.928 318.263 234.418 318.494 233.858C318.726 233.297 318.844 232.696 318.843 232.09V127.49H319.084L420.573 239.14H426.407C427.594 239.152 428.739 238.702 429.6 237.885C430.461 237.068 430.97 235.947 431.019 234.761V71.061C430.98 69.8495 430.481 68.6982 429.625 67.8402C428.769 66.9822 427.618 66.4817 426.407 66.44H404.066C403.46 66.4393 402.86 66.5583 402.3 66.7904C401.74 67.0224 401.231 67.3628 400.803 67.792C400.374 68.2218 400.034 68.7319 399.802 69.2932C399.571 69.8544 399.452 70.4558 399.453 71.063V171.516H399.212L298.203 64H292.137C290.95 63.9876 289.805 64.4377 288.944 65.2551C288.083 66.0725 287.574 67.1929 287.525 68.379L287.519 232.09Z" fill="url(#paint2_linear)"/>
    <defs>
        <linearGradient id="paint0_linear" x1="378.837" y1="273.457" x2="378.837" y2="448.597" gradientUnits="userSpaceOnUse">
            <stop stop-color="#F4F4F4"/>
            <stop offset="1" stop-color="#C5C5C5"/>
        </linearGradient>
        <linearGradient id="paint1_linear" x1="378.837" y1="273.457" x2="378.837" y2="448.597" gradientUnits="userSpaceOnUse">
            <stop stop-color="#F4F4F4"/>
            <stop offset="1" stop-color="#C5C5C5"/>
        </linearGradient>
        <linearGradient id="paint2_linear" x1="256.078" y1="63.9998" x2="256.078" y2="239.14" gradientUnits="userSpaceOnUse">
            <stop stop-color="#D113B5"/>
            <stop offset="1" stop-color="#A10D8C"/>
        </linearGradient>
    </defs>
</svg>
